# xmcd CD database file
#
# Track frame offsets:
#	183
#	25178
#	54800
#	76928
#	99610
#	119213
#	148410
#	171318
#	197850
#
# Disc length: 2953 seconds
#
# Revision: 0
# Processed by: cddbd v1.4PL0 Copyright (c) Steve Scherf et al.
# Submitted via: CDex 1.50Beta7
#
DISCID=800b8709
DTITLE=Nothing Gulch Quartet - Nothing Gulch Quartet
DYEAR=1900
DGENRE=Jazz
TTITLE0=Nothing Special
TTITLE1=Circle And Square
TTITLE2=Seven Dwarfs
TTITLE3=Dusty Rusty
TTITLE4=Chinatown
TTITLE5=På Tømmerflåden (On The Raft)
TTITLE6=The Waytrain
TTITLE7=Vintersang (Wintersong)
TTITLE8=Late At The Station
EXTD=
EXTT0=
EXTT1=
EXTT2=
EXTT3=
EXTT4=
EXTT5=
EXTT6=
EXTT7=
EXTT8=
PLAYORDER=
